<svg width="302" height="302" viewBox="0 0 302 302" fill="none" xmlns="http://www.w3.org/2000/svg">
<path d="M121.374 88.8672C134.301 65.6218 167.224 65.6218 180.15 88.8672C180.15 88.8672 181.359 90.849 181.987 92.1938C187.354 103.689 181.935 111.539 176.2 124.168C173.269 130.621 169.223 136.614 164.779 142.687C163.607 144.289 162.397 145.909 161.174 147.547C157.843 152.005 154.417 156.592 151.401 161.285C142.971 174.4 137.095 189.274 142.162 209.093C144.638 218.778 148.843 225.483 153.489 230.09H100.726C74.8692 230.09 58.6094 201.739 71.3384 178.848L121.374 88.8672Z" fill="#6A4CFF"/>
<path d="M216.187 226.377C211.652 228.736 206.455 230.093 200.799 230.093H173.386C170.617 230.093 167.812 229.715 165.402 228.351C160.364 225.5 154.093 219.62 150.893 207.103C146.577 190.22 151.375 177.676 159.078 165.693C161.922 161.268 165.079 157.042 168.346 152.667C169.607 150.978 170.885 149.268 172.168 147.515C176.694 141.329 181.159 134.773 184.454 127.517C187.712 120.343 189.541 113.551 190.447 107.388L230.185 178.851C239.732 196.019 232.973 216.258 218.089 225.305C217.469 225.682 216.834 226.04 216.187 226.377Z" fill="#4CC4FF"/>
</svg>
